<?xml version="1.0" encoding="utf-8" ?>
<svg xmlns="http://www.w3.org/2000/svg" width="1536" height="768" viewBox="0 0 1536 768" preserveAspectRatio="xMidYMid meet">
<g id="frame">
<path fill="#020617" fill-opacity="0.12" d="M1210.12 31.1198C1262.43 30.8618 1314.74 30.9235 1367.05 31.3048C1376.98 31.408 1386.91 31.4303 1396.84 31.3718C1400.68 31.3136 1413.22 30.7927 1416.41 31.385L1416.45 32.4242C1408.58 34.7046 1368.56 33.1015 1356.43 33.0792L1211.02 33.0064C1209.34 34.3458 1207.37 35.8146 1205.83 37.284L1439.52 37.6107C1459.42 57.9124 1479.53 78.0019 1499.86 97.8759L1499.8 156.088C1499.82 159.859 1500.66 180.995 1499.23 183.147C1499.25 206.256 1498.6 232.962 1499.41 255.767C1499.48 258.258 1499.46 260.007 1499.34 262.497C1499.1 269.286 1499.03 276.08 1499.13 282.873C1490.94 290.739 1481.98 299.271 1474.31 307.612C1474.24 315.808 1473.58 376.087 1475.08 378.533C1475.53 383.572 1475.65 387.506 1474.87 392.517C1474.09 397.629 1474.33 409.327 1474.33 414.811L1474.44 454.056C1482.33 462.29 1490.5 470.247 1498.95 477.912C1499.03 481.791 1500.09 501.412 1499.45 503.541C1498.98 514.414 1497.7 584.278 1499.54 590.726C1501.12 593.36 1499.94 607.56 1499.89 611.931C1499.82 628.337 1499.85 644.744 1499.99 661.15C1500.02 664.221 1500.51 679.999 1500.06 681.802L1461.04 720.036C1454.2 726.757 1445.99 735.611 1438.64 741.53L1348.2 741.497C1336.38 741.456 1317.28 741.893 1305.83 741.084L1300.64 735.924C1297.83 736.099 1294.9 736.183 1292.17 736.852L1293.32 734.014C1282.43 733.466 1264.78 734.071 1253.42 734.096L1156.94 734.664L1083.78 734.176C1072.6 734.14 1055.86 733.718 1045.28 734.733C1041.03 731.458 1035.49 725.788 1031.5 721.917L609.674 722.263L501.883 722.197C491.195 722.192 458.781 722.838 450.45 721.374C452.729 722.216 452.974 722.362 454.265 724.411C444.876 725.055 427.544 724.361 417.368 724.342L344.533 724.406L97.233 723.907C82.0482 710.678 58.0345 687.709 44.1421 672.934C43.2588 645.429 44.5008 617.221 44.0802 589.648C43.9717 582.533 45.7327 574.618 45.7685 567.314C45.9023 540.055 45.9179 512.797 45.9467 485.538C48.7483 482.804 51.3466 479.079 53.8167 476.812C60.388 470.784 66.7078 464.878 73.1175 458.667C73.1643 443.659 73.1248 428.652 72.9987 413.644C72.9376 409.46 72.1721 394.3 72.6876 391.718C72.7663 385.645 73.078 379.126 72.4931 373.093C72.1149 369.689 72.2375 367.223 72.3527 363.842C73.0654 342.929 72.7918 321.869 72.737 300.952C66.5667 293.86 58.3098 287.522 52.0349 279.859C46.1299 273.53 46.5886 276.925 46.4226 268.093C45.8399 242.61 47.275 216.804 45.9423 191.33C44.503 163.819 45.0739 136.044 45.0619 108.467C55.6693 97.4889 68.8491 85.909 79.7196 74.7755C84.6191 69.7574 100.842 53.8115 105.746 50.2503C108.293 48.801 141.145 49.5145 146.783 49.5313L216.697 49.5886L448.402 49.4663C445.662 46.7545 442.94 43.516 440.377 40.5997C444.443 43.7139 446.985 46.1703 450.666 49.7304C457.845 50.6414 488.681 50.369 497.098 50.123C510.726 49.7246 536.424 51.0697 548.867 49.8419L553.315 45.2793L553.962 45.3384L552.279 49.116C567.157 50.1554 594.767 49.3233 610.465 49.3209L724.687 49.3943L861.304 49.4451C880.493 49.4303 910.454 50.3456 928.845 49.2576L922.903 42.7772L922.981 41.9194L922.027 41.2961L922.278 41.9404L922.428 41.4931L922.957 42.8507L922.021 41.2723C925.48 43.9643 927.878 46.3874 930.984 49.445C936.756 51.3869 1017.51 49.977 1029.44 49.8775C1034.72 45.4283 1038.93 41.5368 1043.91 36.7314L1203.43 36.7804L1210.12 31.1198Z"/>
<path fill="#374FC6" d="M1210.12 31.1198C1262.43 30.8618 1314.74 30.9235 1367.05 31.3048C1376.98 31.408 1386.91 31.4303 1396.84 31.3718C1400.68 31.3136 1413.22 30.7927 1416.41 31.385L1416.45 32.4242C1408.58 34.7046 1368.56 33.1015 1356.43 33.0792L1211.02 33.0064C1209.34 34.3458 1207.37 35.8146 1205.83 37.284L1439.52 37.6107C1459.42 57.9124 1479.53 78.0019 1499.86 97.8759L1499.8 156.088C1499.82 159.859 1500.66 180.995 1499.23 183.147L1497.49 183.794C1496.91 181.429 1496.91 180.701 1497.04 178.294C1498.53 152.168 1497.97 125.149 1497.95 98.9958C1478.64 78.9535 1457.97 59.6006 1438.98 39.4789C1398.05 40.3875 1353.84 39.6015 1312.76 39.5238L1044.71 38.8964C1040.24 43.2713 1035.51 48.1244 1030.52 51.8332C1016.68 50.8076 992.396 51.5621 978.005 51.5607L873.192 51.6434L366.147 51.6855L191.015 51.8052C164.249 51.7695 137.28 51.6628 110.496 51.6734C107.615 51.6746 107.367 51.8064 105.746 50.2503C108.293 48.801 141.145 49.5145 146.783 49.5313L216.697 49.5886L448.402 49.4663C445.662 46.7545 442.94 43.516 440.377 40.5997C444.443 43.7139 446.985 46.1703 450.666 49.7304C457.845 50.6414 488.681 50.369 497.098 50.123C510.726 49.7246 536.424 51.0697 548.867 49.8419L553.315 45.2793L553.962 45.3384L552.279 49.116C567.157 50.1554 594.767 49.3233 610.465 49.3209L724.687 49.3943L861.304 49.4451C880.493 49.4303 910.454 50.3456 928.845 49.2576L922.903 42.7772L922.981 41.9194L922.027 41.2961L922.278 41.9404L922.428 41.4931L922.957 42.8507L922.021 41.2723C925.48 43.9643 927.878 46.3874 930.984 49.445C936.756 51.3869 1017.51 49.977 1029.44 49.8775C1034.72 45.4283 1038.93 41.5368 1043.91 36.7314L1203.43 36.7804L1210.12 31.1198Z"/>
<path fill="#1A2056" d="M928.845 49.2576L922.903 42.7772L922.981 41.9194L922.027 41.2961L922.278 41.9404L922.428 41.4931L922.957 42.8507L922.021 41.2723C925.48 43.9643 927.878 46.3874 930.984 49.445C925.258 50.694 899.567 50.2013 891.989 50.2042L806.765 50.2146L636.734 50.0089C610.73 50.0085 573.783 51.3552 548.867 49.8419L553.315 45.2793L553.962 45.3384L552.279 49.116C567.157 50.1554 594.767 49.3233 610.465 49.3209L724.687 49.3943L861.304 49.4451C880.493 49.4303 910.454 50.3456 928.845 49.2576Z"/>
<path fill="#1A2056" d="M440.377 40.5997C444.443 43.7139 446.985 46.1703 450.666 49.7304C442.716 50.707 426.988 50.2784 418.311 50.2786L360.094 50.2517L190.197 50.2209C164.726 50.2182 130.401 49.1419 105.746 50.2503C108.293 48.801 141.145 49.5145 146.783 49.5313L216.697 49.5886L448.402 49.4663C445.662 46.7545 442.94 43.516 440.377 40.5997Z"/>
<path fill="#374FC6" d="M72.6876 391.718L75.2607 390.689C75.811 395.059 75.1198 408.033 75.0696 413.498L75.0246 459.44C67.1042 467.145 60.0119 474.179 52.5191 482.282L52.8965 573.97C50.6769 575.912 48.3012 578.082 46.0397 579.936C46.2837 609.801 45.6077 642.209 46.3877 671.583C56.0026 682.943 86.8153 711.464 98.5728 721.859L334.486 722.016L403.086 722.036C418.466 722.063 435.251 722.439 450.45 721.374C452.729 722.216 452.974 722.362 454.265 724.411C444.876 725.055 427.544 724.361 417.368 724.342L344.533 724.406L97.233 723.907C82.0482 710.678 58.0345 687.709 44.1421 672.934C43.2588 645.429 44.5008 617.221 44.0802 589.648C43.9717 582.533 45.7327 574.618 45.7685 567.314C45.9023 540.055 45.9179 512.797 45.9467 485.538C48.7483 482.804 51.3466 479.079 53.8167 476.812C60.388 470.784 66.7078 464.878 73.1175 458.667C73.1643 443.659 73.1248 428.652 72.9987 413.644C72.9376 409.46 72.1721 394.3 72.6876 391.718Z"/>
<path fill="#02032A" d="M49.5756 484.188L50.5268 485.109C50.8329 486.693 51.1361 492.877 50.9443 494.359C49.475 505.704 53.2407 568.953 49.8425 575.383C47.7385 573.832 47.9286 571.757 47.931 569.288C47.9573 542.009 47.571 514.686 48.0268 487.42C48.0469 486.221 48.7767 485.039 49.5756 484.188Z"/>
<path fill="#2A348D" d="M45.0619 108.467C55.6693 97.4889 68.8491 85.909 79.7196 74.7755C84.6191 69.7574 100.842 53.8115 105.746 50.2503C107.367 51.8064 107.615 51.6746 110.496 51.6734C137.28 51.6628 164.249 51.7695 191.015 51.8052L366.147 51.6855L873.192 51.6434L978.005 51.5607C992.396 51.5621 1016.68 50.8076 1030.52 51.8332C1020.45 52.7512 1004.35 52.3429 993.861 52.3269L932.521 52.2675L726.826 52.3441L106.262 52.323C86.9716 70.5702 65.6236 90.2694 47.2067 109.17L47.3229 188.643L53.3328 193.935L53.3348 248.846C53.332 252.372 53.4351 270.075 52.8806 272.423C52.7438 275.163 52.487 276.204 53.2024 278.877C52.7992 279.229 52.4639 279.535 52.0349 279.859C46.1299 273.53 46.5886 276.925 46.4226 268.093C45.8399 242.61 47.275 216.804 45.9423 191.33C44.503 163.819 45.0739 136.044 45.0619 108.467Z"/>
<path fill="#02032A" d="M48.9897 270.077C48.621 261.969 47.7877 198.078 49.6137 194.492C52.7781 204.336 50.1071 242.168 50.7685 254.072C50.9735 257.762 50.335 265.5 51.4093 269.068C50.5836 269.429 49.8398 269.767 48.9897 270.077Z"/>
<path fill="#374FC6" d="M46.4226 268.093C47.2836 268.747 48.1394 269.409 48.9897 270.077C49.8398 269.767 50.5836 269.429 51.4093 269.068C52.4542 270.551 52.4026 270.675 52.8806 272.423C52.7438 275.163 52.487 276.204 53.2024 278.877C52.7992 279.229 52.4639 279.535 52.0349 279.859C46.1299 273.53 46.5886 276.925 46.4226 268.093Z"/>
<path fill="#1A2056" d="M1438.24 739.594C1444.96 733.987 1453.66 724.937 1460.06 718.658L1497.39 682.134L1500.06 681.802L1461.04 720.036C1454.2 726.757 1445.99 735.611 1438.64 741.53L1348.2 741.497C1336.38 741.456 1317.28 741.893 1305.83 741.084L1300.64 735.924C1297.83 736.099 1294.9 736.183 1292.17 736.852L1293.32 734.014L1301.85 734.137C1303.21 735.921 1304.88 737.715 1306.37 739.408L1438.24 739.594Z"/>
<path fill="#2A348D" d="M1474.87 392.517C1474.09 397.629 1474.33 409.327 1474.33 414.811L1474.44 454.056C1482.33 462.29 1490.5 470.247 1498.95 477.912C1499.03 481.791 1500.09 501.412 1499.45 503.541L1496.86 504.043C1495.97 501.05 1496.82 483.915 1496.87 479.178C1489.75 472.921 1478.96 461.686 1472.44 454.628C1471.96 434.137 1472.92 413.275 1472.3 392.935L1474.87 392.517Z"/>
<path fill="#2A348D" d="M53.2024 278.877C60.5089 285.628 67.9057 293.119 75.0307 300.129L75.157 350.815C75.1855 354.954 75.8474 368.978 75.0766 372.104L72.4931 373.093C72.1149 369.689 72.2375 367.223 72.3527 363.842C73.0654 342.929 72.7918 321.869 72.737 300.952C66.5667 293.86 58.3098 287.522 52.0349 279.859C52.4639 279.535 52.7992 279.229 53.2024 278.877Z"/>
<path fill="#1A2056" d="M1499.34 262.497C1499.1 269.286 1499.03 276.08 1499.13 282.873C1490.94 290.739 1481.98 299.271 1474.31 307.612C1474.24 315.808 1473.58 376.087 1475.08 378.533C1473.05 379.198 1472.72 379.226 1471.36 380.937C1473.41 374.943 1472.33 318.47 1472.36 307.006C1479.73 298.652 1489.47 289.594 1497.71 282.105C1497.78 276.304 1498.09 268.825 1497.4 263.214L1499.34 262.497Z"/>
<path fill="#2A348D" d="M1496.97 591.006L1499.54 590.726C1501.12 593.36 1499.94 607.56 1499.89 611.931C1499.82 628.337 1499.85 644.744 1499.99 661.15C1500.02 664.221 1500.51 679.999 1500.06 681.802L1497.39 682.134C1496.68 679.505 1497.62 667.074 1497.71 663.367C1498.3 639.091 1497.67 615.226 1496.97 591.006Z"/>
<path fill="#1A2056" d="M1496.86 504.043L1499.45 503.541C1498.98 514.414 1497.7 584.278 1499.54 590.726L1496.97 591.006L1497.16 533.041C1497.2 525.958 1497.68 510.227 1496.86 504.043Z"/>
<path fill="#1A2056" d="M1497.49 183.794L1499.23 183.147C1499.25 206.256 1498.6 232.962 1499.41 255.767L1497.42 256.221C1498.15 249.418 1497.86 232.281 1497.78 224.813C1497.65 212.389 1498.36 195.768 1497.49 183.794Z"/>
<path fill="#374FC6" d="M1471.36 380.937C1472.72 379.226 1473.05 379.198 1475.08 378.533C1475.53 383.572 1475.65 387.506 1474.87 392.517L1472.3 392.935C1471.66 388.135 1471.69 385.669 1471.36 380.937Z"/>
<path fill="#1A2056" d="M75.0766 372.104C74.479 377.438 74.5716 385.346 75.2607 390.689L72.6876 391.718C72.7663 385.645 73.078 379.126 72.4931 373.093L75.0766 372.104Z"/>
<path fill="#374FC6" d="M1497.42 256.221L1499.41 255.767C1499.48 258.258 1499.46 260.007 1499.34 262.497L1497.4 263.214L1497.29 262.958C1496.49 261.155 1495.55 257.635 1497.42 256.221Z"/>
<path fill="#374FC6" d="M487.963 129.231L578.765 129.154L635.141 186.347C648.425 199.717 664.699 215.359 677.267 228.956L677.139 315.253C677.115 329.121 677.64 348.679 676.782 362.104L666.989 373.076C666.865 379.408 666.794 385.741 666.776 392.074L666.773 485.688C666.733 493.262 666.144 530.162 667.062 535.466C640.674 563.384 606.419 597.315 578.565 624.045C546.584 624.036 512.411 623.429 480.609 624.069C475.7 628.679 470.903 633.408 466.223 638.25L290.668 638.188C284.193 632.913 277.893 627.427 271.778 621.74L187.053 621.761C180.172 615.652 133.991 571.058 133.608 565.944C133.569 565.422 133.612 564.919 133.672 564.402C134.957 557.504 135.002 489.881 133.19 485.176C133.847 484.185 136.466 481.698 137.437 480.728L137.334 272.954L133.057 268.412C134.416 265.376 134.38 205.79 133.84 198.859C151.075 180.859 168.95 162.922 186.454 145.15C213.496 144.326 243.401 144.969 270.656 144.99L289.742 129.454L466.717 129.176C471.02 132.611 474.257 135.747 478.227 139.58C480.81 136.173 484.755 132.11 487.963 129.231Z"/>
<path fill="#020617" fill-opacity="0.12" d="M487.963 129.231L578.765 129.154L635.141 186.347C648.425 199.717 664.699 215.359 677.267 228.956L677.139 315.253C677.115 329.121 677.64 348.679 676.782 362.104L666.989 373.076L666.794 370.315C667.067 324.531 667.111 278.745 666.926 232.96C637.558 203.314 607.609 171.677 577.977 142.694C546.577 142.302 514.3 143.955 482.859 142.59C480.763 142.499 480.15 141.53 478.675 140.239L478.227 139.58C480.81 136.173 484.755 132.11 487.963 129.231Z"/>
<path fill="#2A348D" d="M487.963 129.231L578.765 129.154L635.141 186.347C648.425 199.717 664.699 215.359 677.267 228.956L677.139 315.253C677.115 329.121 677.64 348.679 676.782 362.104L666.989 373.076L666.794 370.315C668.138 368.4 673.338 363.149 675.23 361.164C673.765 319.959 675.326 271.625 675.222 229.705C644.989 197.738 609.197 162.671 577.946 131.347L487.972 131.309C484.601 134.884 482.504 137.123 478.675 140.239L478.227 139.58C480.81 136.173 484.755 132.11 487.963 129.231Z"/>
<path fill="#020617" fill-opacity="0.12" d="M187.619 150.011L557.553 150.02C579.371 169.968 599.528 192.846 620.62 213.623C626.765 219.675 633.381 226.47 638.968 233.003C638.468 263.548 638.329 299.246 639.185 329.695C643.222 335.751 657.819 350.143 663.891 357.06C663.809 368.164 663.178 387.529 664.801 398.13C657.644 406.051 644.942 418.165 639.052 426.17C638.459 436.811 638.943 452.472 638.951 463.388L639.002 534.388C617.393 555.532 594.678 579.348 573.588 601.144L557.792 617.183L188.077 617.306C171.555 600.05 154.232 583.642 137.935 565.822L137.702 485.839C145.706 477.006 154.583 468.415 162.77 459.489L162.689 294.309C155.547 286.201 145.617 276.397 137.799 268.858C137.116 247.207 137.686 222.616 137.709 200.814C154.239 183.775 170.876 166.84 187.619 150.011Z"/>
<path fill="#374FC6" d="M309.675 61.125C344.516 60.2519 382.767 61.2138 417.798 61.3409L577.633 61.3359C567.858 71.1345 557.888 80.7364 547.729 90.1358L285.183 90.5319L280.029 85.4208L124.833 85.4334C114.735 95.7471 96.6204 113.356 87.815 124.073L87.7606 234.957C100.269 248.028 116.81 263.28 128.207 276.397C128.388 342.671 127.415 410.183 128.461 476.297C124.095 481.588 116.613 488.574 111.485 493.682C103.506 501.685 95.5861 509.747 87.7268 517.868L87.7506 606.955L95.2978 615.144L146.625 666.774L213.006 666.799C227.117 679.37 244.691 698.021 258.595 711.757L108.97 711.821C92.4371 696.89 75.3283 679.898 59.2591 664.347L59.2747 486.478C67.9739 476.797 78.3634 466.903 87.6914 457.691L87.2358 299.728C78.0072 290.746 68.8658 281.512 59.7372 272.415L59.8172 114.773C76.8941 97.0533 96.7881 78.556 114.746 61.4795L309.675 61.125Z"/>
<path fill="#374FC6" d="M949.858 646.462L1067.71 646.504C1079.39 656.421 1099.37 677.886 1110.49 689.37C1155.37 688.353 1204.03 689.257 1249.24 689.299C1257.09 697.61 1263.54 704.156 1272.04 711.737L598.125 711.815L318.49 711.789C305.777 699.169 289.288 683.552 277.74 670.471L792.512 672.871C799.26 672.852 797.21 669.414 801.534 669.418C843.579 669.454 885.601 669.577 927.646 669.15C934.49 661.639 942.636 653.738 949.858 646.462Z"/>
<path fill="#374FC6" d="M1474.35 215.066C1474.84 217.221 1474.7 230.754 1474.7 233.586L1474.76 272.098C1466.21 281.708 1456.17 290.302 1447.53 300.028L1447.56 460.099C1456.62 468.994 1465.51 478.065 1474.22 487.309C1474.88 546.5 1474.49 606.956 1474.39 666.209C1459 682.349 1442.53 697.776 1427.22 713.98L1343.41 714.002L1349.45 707.699C1379.18 679.323 1413.66 644.83 1442.04 615.166C1442.44 583.444 1442.11 551.028 1442.07 519.243C1432.62 507.157 1414.87 490.922 1403.7 478.961C1402.87 456.348 1403.54 429.71 1403.59 406.803L1403.74 285.701C1409.23 278.667 1424.39 264.516 1431.1 258.009C1445.78 243.962 1460.2 229.646 1474.35 215.066Z"/>
<path fill="#374FC6" d="M1238.65 60.373L1273.21 60.0214C1265.22 68.5798 1258.53 75.3706 1249.83 83.1022L1106.11 83.1174L1067.21 121.79C1025.87 122.41 983.172 121.761 941.715 121.648C930.888 111.227 920.133 100.733 909.449 90.166L707.871 89.9993L639.536 90.0228C646.923 81.1624 658.639 68.7951 667.218 61.3485C691.233 60.4943 717.021 60.8465 741.117 60.8336L857.957 60.8054L1238.65 60.373Z"/>
<path fill="#374FC6" d="M1384.97 84.8722C1398.51 83.9109 1406.22 84.6206 1418.54 91.4502C1430.38 98.015 1439.83 108.624 1443.41 121.919C1446.86 134.655 1445.06 148.239 1438.42 159.638C1431.43 171.908 1419.81 180.866 1406.17 184.51C1398 186.639 1370.92 187.832 1365.02 176.191C1364.45 175.06 1365.25 174.073 1365.96 173.078C1371.23 170.962 1377.17 176.284 1382.98 177.229C1402.3 180.373 1417.69 174.556 1429.63 158.937C1433.91 152.17 1436.67 144.906 1437.2 136.897C1438.75 113.666 1417 93.2865 1394.66 92.4268C1382.51 92.0327 1370.7 96.5121 1361.86 104.869C1353.22 113.066 1348.55 124.76 1349.59 136.703C1349.99 141.353 1351.39 145.404 1351.29 150.162C1349.68 152.79 1348.8 154.054 1345.64 153.739C1344.22 152.768 1343.38 150.062 1343.05 148.429C1336.25 115.425 1353.26 91.8861 1384.97 84.8722Z"/>
<path fill="#374FC6" d="M1441 91.8313C1441.73 91.9129 1443.21 92.278 1444 92.4494C1450.53 97.4261 1458.22 112.27 1459.77 120.423C1471.61 182.678 1406.11 222.781 1353.66 190.144C1350.72 188.103 1349.72 187.598 1349.46 183.905C1353.44 178.651 1361.63 185.843 1366.23 188.039C1395.82 202.184 1432.43 190.712 1447.51 161.272C1455.29 146.094 1456 124.827 1447.29 109.876C1444.59 105.232 1441.11 100.861 1438.73 96.0476C1438.2 94.9772 1440.09 93.0605 1441 91.8313Z"/>
<path fill="#81C6FD" d="M611.634 653.625L631.335 653.456L620.646 665.718L531.563 665.658L513.406 665.639L523.512 653.727L611.634 653.625Z"/>
<path fill="#2A348D" d="M1433.11 51.8699L1181.86 51.8422L1100.09 51.939C1085.21 51.9596 1067.47 52.4097 1052.8 51.6559L1052.59 51.2239C1060.75 49.3768 1080.96 50.2421 1090.45 50.243L1162.42 50.2063L1317.62 49.9856C1356.23 49.8487 1396.35 49.356 1434.88 50.0659C1449.77 64.8471 1475.84 88.4805 1488.56 102.997C1488.63 131.303 1488.39 160.236 1488.82 188.486L1435.13 240.926C1427.3 248.637 1414.26 262.488 1406.2 268.621L1404 263.918L1406.04 266.072C1408.05 265.514 1478.43 194.919 1486.57 187.601L1486.59 103.54C1469.46 87.041 1450.5 67.5011 1433.11 51.8699Z"/>
<path fill="#81C6FD" d="M518.402 97.6348L626.243 97.5412C622.565 101.708 618.822 105.818 615.016 109.869L507.585 109.827C511.111 105.318 514.463 101.802 518.402 97.6348Z"/>
<path fill="#2A348D" d="M1482.97 481.26C1485.07 483.349 1486.14 484.42 1487.99 486.76C1487.85 513.108 1487.66 539.478 1487.76 565.827C1487.79 573.875 1489.37 581.839 1489.41 589.592C1489.54 616.401 1489.47 643.275 1489.45 670.085L1435.06 724.463L1372.55 724.482L1371.91 722.242L1434.18 722.357C1451.67 705.673 1470.25 686.591 1487.28 669.369C1487.3 639.879 1486.86 610.135 1487.16 580.683L1481.2 574.743C1480.73 551.922 1481.27 528.941 1480.98 506.105C1480.91 500.543 1480.83 494.585 1481.19 489.056L1481.09 483.202L1482.97 481.26Z"/>
<path fill="#02032A" d="M1483.22 488.374L1485.62 488.161C1485.67 497.402 1486.51 570.357 1484.71 574.264C1482.24 566.737 1483.02 500.025 1483.22 488.374Z"/>
<path fill="#374FC6" d="M1482.97 481.26C1485.07 483.349 1486.14 484.42 1487.99 486.76C1486.95 487.692 1486.97 487.708 1485.62 488.161L1483.22 488.374C1482.55 488.614 1481.87 488.841 1481.19 489.056L1481.09 483.202L1482.97 481.26Z"/>
<path fill="#374FC6" d="M1392.03 68.58C1395.29 68.5748 1406.17 68.5488 1404.87 74.0395C1404.45 74.5071 1402.35 76.7678 1401.78 76.7114C1367.29 73.2967 1337.04 94.3013 1333.11 129.623C1332.38 136.231 1332.96 140.828 1333.96 147.525L1334.36 149.64C1333.26 152.052 1333.92 151.187 1331.58 152.85C1328.89 152.914 1329.93 153.23 1327.66 151.545C1326.06 148.021 1325.25 142.548 1325 138.653C1323.8 121.633 1329.44 104.839 1340.67 91.9969C1354.9 75.8745 1371.19 69.9035 1392.03 68.58Z"/>
<path fill="#2A348D" d="M122.835 97.202C123.802 96.2969 126.423 93.4214 127.609 93.4229C164.073 93.4682 200.571 93.4417 237.045 93.6339C239.766 93.6482 243.823 93.8273 246.274 94.908L248.147 97.2706L247.575 98.0607L245.659 98.0199C232.084 98.5355 216.267 98.0861 202.509 98.0091C176.476 97.8345 150.442 97.8479 124.409 98.0494C115.805 107.503 106.999 116.77 97.9972 125.844C97.5475 160.527 97.8118 195.669 97.7382 230.39C105.436 237.566 127.164 258.593 133.398 266.359C133.39 256.687 132.143 205.127 133.84 198.859C134.38 205.79 134.416 265.376 133.057 268.412C121.531 257.369 106.676 242.666 95.9945 231.01L95.955 124.821C102.675 117.795 116.023 102.983 122.835 97.202Z"/>
<path fill="#374FC6" d="M122.835 97.202C123.802 96.2969 126.423 93.4214 127.609 93.4229C164.073 93.4682 200.571 93.4417 237.045 93.6339C239.766 93.6482 243.823 93.8273 246.274 94.908L248.147 97.2706L247.575 98.0607L245.659 98.0199C240.613 96.9416 215.362 97.3763 209.306 97.3311C180.563 97.1166 151.564 97.7433 122.835 97.202Z"/>
<path fill="#2A348D" d="M666.776 392.074C667.403 399.846 672.279 400.894 677.255 407.21C677.295 450.933 677.853 495.827 677.278 539.44C657.617 558.778 638.094 578.256 618.709 597.871C606.123 610.604 591.56 626.074 578.583 638.201L522.818 638.208C516.47 638.205 499.159 638.522 493.742 637.557C500.285 635.819 513.193 636.661 520.448 636.432C538.619 635.856 560.259 637.396 578.074 636.32C606.408 608.701 633.5 579.621 662.08 552.216C666.397 548.076 670.976 543.686 675.101 539.374L674.935 407.865C672.345 404.949 669.788 402.004 667.265 399.03C667.596 433.535 667.676 468.041 667.504 502.546C667.494 506.108 667.645 533.146 667.062 535.466C666.144 530.162 666.733 493.262 666.773 485.688L666.776 392.074Z"/>
<path fill="#2A348D" d="M1250.27 88.4687C1252.96 85.8878 1278.35 60.9155 1278.71 60.8578C1275.02 66.2325 1255.47 85.9698 1250.37 89.9763C1203.92 89.7339 1157.47 89.8124 1111.02 90.2116C1097.97 101.282 1084.72 117.008 1071.82 128.971C1043.04 128.702 1014.26 128.58 985.487 128.605C970.07 128.621 951.358 129.228 936.241 128.708C927.293 119.776 918.031 110.26 908.799 101.699L863.367 101.755C856.968 101.759 843.992 102.063 838.119 101.373C848.845 100.269 905.561 102.909 910.445 99.3176C919.261 108.625 928.251 117.765 937.41 126.734L1071.12 126.841C1079.67 118.033 1101.81 95.1114 1110.51 88.4935L1250.27 88.4687Z"/>
<defs>
<linearGradient id="gradient_0" gradientUnits="userSpaceOnUse" x1="670.52142" y1="101.1953" x2="670.37408" y2="109.30637">
<stop offset="0" stop-color="#020310"/>
<stop offset="1" stop-color="#131946"/>
</linearGradient>
</defs>
<path fill="url(#gradient_0)" d="M632.34 100.929C638.802 98.504 704.88 99.1566 714.034 99.7186C712.784 102.725 711.426 107.58 708.72 108.861C705.65 109.723 699.61 109.451 696.16 109.38C676.976 108.989 657.601 110.057 638.461 109.043C633.169 108.762 631.526 105.109 632.34 100.929Z"/>
<path fill="#1A2056" d="M632.34 100.929C638.802 98.504 704.88 99.1566 714.034 99.7186C712.784 102.725 711.426 107.58 708.72 108.861L708.572 108.09C708.842 107.637 709.102 107.177 709.351 106.711C710.351 104.797 711.243 103.311 710.666 101.481C700.788 100.505 682.112 101.657 671.523 101.278C666.892 101.112 643.824 101.111 640.19 101.647L639.446 104.684L638.232 105.392C637.486 103.841 637.045 102.867 636.073 101.423L632.34 100.929Z"/>
<path fill="#1A2056" d="M428.259 97.5148C447.02 98.1005 465.82 97.533 484.587 97.7092C490.077 97.7608 495.666 97.4197 501.075 98.5094C502.946 100.423 505.53 104.521 506.214 107.02L503.671 107.699C480.355 108.745 448.145 107.515 424.262 107.362C425.568 103.352 426.176 101.269 428.259 97.5148Z"/>
<path fill="#020617" fill-opacity="0.12" d="M428.972 99.1853C452.569 99.4995 476.169 99.4997 499.765 99.1858C501.903 101.382 502.514 101.864 503.733 104.657L503.115 105.988C477.549 105.472 451.139 105.826 425.452 105.67C426.555 103.975 427.989 101.056 428.972 99.1853Z"/>
<path fill="#374FC6" d="M1372.55 724.482L1057.71 724.917C1054.56 724.901 1049.58 725.024 1047.4 722.828C1053.43 720.932 1116.65 722.225 1127.86 722.23L1371.91 722.242L1372.55 724.482Z"/>
<path fill="#2A348D" d="M95.951 522.323C108.096 510.433 120.982 496.485 133.19 485.176C135.002 489.881 134.957 557.504 133.672 564.402C133.037 539.629 133.727 512.297 133.461 487.109C121.872 499.378 110.097 511.47 98.1405 523.382C97.836 550.335 97.71 577.289 97.7625 604.243L151.37 658.486L276.598 658.46C275.502 658.938 274.069 659.495 273.072 660.097C269.042 661.275 241.31 660.812 235.104 660.806L150.374 660.711C143.865 654.52 136.93 646.758 130.422 640.197C119.006 628.687 106.943 616.996 95.955 605.144L95.951 522.323Z"/>
<path fill="#2A348D" d="M1485.07 276.135L1485.27 226.447C1485.32 218.719 1485.05 203.843 1486.12 196.587C1488.12 200.063 1487.3 268.117 1487.3 276.584C1478.01 285.634 1468.77 294.738 1459.59 303.898L1459.56 459.159C1465.17 464.531 1477.59 477.375 1482.97 481.26L1481.09 483.202C1473.25 475.886 1465.25 467.392 1457.71 459.659C1456.63 438.471 1457.34 411.145 1457.48 389.666L1457.53 303.088C1465.91 294.232 1476.21 284.846 1485.07 276.135Z"/>
<path fill="#81C6FD" d="M1393.09 138.687C1398.95 133.455 1404.79 127.854 1410.64 122.539C1413.26 124.595 1416.42 127.585 1418.97 129.85L1411.1 137.415C1405.32 142.965 1399.44 148.398 1393.45 153.711C1385.61 145.815 1376.89 137.724 1368.83 129.981L1376.2 122.681C1379.22 124.031 1389.96 135.45 1393.09 138.687Z"/>
<path fill="#2A348D" d="M944.779 639.691L1072.88 639.823C1085.81 652.906 1103 671.522 1116.15 683.708C1148.45 683.966 1180.75 684.048 1213.05 683.955C1221.42 683.963 1243.03 683.697 1250.42 684.617C1252.25 684.845 1276.22 710.845 1276.31 711.335L1275.23 711.287C1267.46 702.74 1258.56 693.804 1250.34 685.622L1114.93 685.491C1100.89 671.431 1085.42 655.766 1071.82 641.291L945.159 641.485C942.46 644.324 929.458 657.328 928.142 659.887L926.997 657.468C928.315 655.35 942.415 641.505 944.779 639.691Z"/>
<path fill="#2A348D" d="M1405.05 493.618C1410.9 498.984 1416.46 504.584 1422.2 510.065C1425.49 513.203 1429.79 516.363 1432.69 519.722C1433.08 548.331 1433.57 580.221 1432.9 608.78C1426.91 615.675 1329.7 712.889 1327.31 714.033L1326.43 713.648C1326.92 709.769 1421.06 619.557 1430.84 607.92L1430.81 522.122C1423.43 517.824 1411.07 500.401 1404.48 496.65L1405.05 493.618Z"/>
<path fill="#1A2056" d="M423.926 655.876C452.728 655.518 481.533 655.355 510.337 655.389L504.872 661.552C501.028 662.571 482.941 662.254 478.023 662.257L425.088 662.264C423.326 660.337 422.416 659.406 421.011 657.181L421.467 656.142L423.926 655.876Z"/>
<path fill="#020617" fill-opacity="0.12" d="M422.768 657.156C430.686 656.837 503.653 656.745 505.931 657.682L505.237 658.455L503.697 660.095C500.964 660.908 496.105 660.826 492.828 660.787C471.096 660.528 448.806 661.477 427.165 660.21C425.256 660.099 424.114 658.486 422.768 657.156Z"/>
<path fill="#374FC6" d="M838.119 101.373C830.389 101.744 769.402 101.896 766.425 100.193L766.966 99.049C773.193 95.7116 782.057 97.1526 789.123 97.2277C800.488 97.34 811.853 97.3882 823.218 97.3723L877.307 97.3148C883.932 97.3038 906.557 96.0115 910.445 99.3176C905.561 102.909 848.845 100.269 838.119 101.373Z"/>
<path fill="#374FC6" d="M926.997 657.468L928.142 659.887C920.593 664.938 829.54 659.935 814.317 662.014C812.571 662.252 806.059 662.25 804.52 661.608C804.839 658.741 806.233 657.902 809.295 657.799C847.865 656.499 888.66 659.642 926.997 657.468Z"/>
<path fill="#374FC6" d="M762.206 654.013L797.413 654.049C793.526 658.307 789.701 662.622 785.939 666.99C774.178 667.388 761.93 667.266 750.125 667.3C754.198 662.913 758.225 658.484 762.206 654.013Z"/>
<path fill="#374FC6" d="M371.279 654.29C380.926 653.839 393.546 654.186 403.428 654.163C406.908 658.241 411.166 662.993 414.307 667.237L382.833 667.3C380.048 664.122 373.042 657.43 371.279 654.29Z"/>
<path fill="#374FC6" d="M728.988 94.8336C738.959 95.1811 750.688 94.7955 760.787 94.6915L748.262 108.043C739.151 108.48 726.409 108.063 717.01 108.053L728.988 94.8336Z"/>
<path fill="#374FC6" d="M276.598 658.46L333.747 658.483C338.527 658.475 357.876 657.761 360.495 659.309L362.04 661.333L361.493 662.353C356.352 663.142 349.202 662.875 343.879 662.807C321.898 662.524 299.844 663.156 277.886 662.367C276.156 662.305 274.405 661.106 273.072 660.097C274.069 659.495 275.502 658.938 276.598 658.46Z"/>
<path fill="#1A2056" d="M637.696 655.61C641.303 655.45 645.272 655.49 648.898 655.514C682.322 655.73 716.019 654.824 749.421 655.686L743.522 663.806L662.818 663.72C658.58 663.715 637.503 664.29 634.352 663.466L635.165 662.219L635.45 660.335C636.433 661.313 637.357 662.385 638.868 662.367C672.442 661.98 706.027 662.555 739.601 662.342C742.845 662.321 743.483 660.599 745.547 658.334L745.402 657.505C744.954 657.342 744.496 657.208 744.03 657.104C742.784 656.817 703.502 656.954 702.181 657.081C691.153 658.143 643.68 654.86 637.037 658.976L636.784 657.902L637.263 658.486C636.772 656.893 636.841 657.515 637.696 655.61Z"/>
<path fill="#81C6FD" d="M1393.45 355.553C1394.63 357.094 1394.5 403.263 1393.55 404.946L1391.96 403.766L1387.6 399.188L1387.6 360.772L1393.45 355.553Z"/>
<path fill="#81C6FD" d="M1387.58 448.671L1393.85 454.802L1393.92 482.761C1397.35 486.316 1401.47 490.136 1405.05 493.618L1404.48 496.65C1401.37 495.007 1390.54 482.857 1387.58 479.681L1387.58 448.671Z"/>
<path fill="#81C6FD" d="M1388.24 280.784C1392.04 276.083 1399.56 268.59 1404 263.918L1406.2 268.621C1404.46 269.944 1395.71 279.259 1393.66 281.369L1393.61 305.565L1388.27 311.671L1388.24 280.784Z"/>
<path fill="#81C6FD" d="M250.814 93.7115L274.076 93.7069C277.323 96.9924 280.644 100.187 283.909 103.457C275.943 103.425 267.976 103.464 260.011 103.573C256.669 100.145 253.921 97.3661 250.814 93.7115Z"/>
<path fill="#1A2056" d="M286.117 97.0415C300.731 97.4159 317.17 96.8449 331.928 96.7722C360.192 96.6283 388.457 96.6528 416.721 96.8457L410.874 101.737C410.753 100.561 411.143 99.6845 411.464 98.481C406.449 97.9804 396.101 98.2713 390.775 98.2714L350.664 98.2956L311.33 98.4194C306.145 98.462 295.428 98.3159 290.773 98.98L290.968 100.183L290.336 100.642L286.117 97.0415Z"/>
<path fill="#1A2056" d="M292.237 101.673C299.482 105.739 314.765 104.285 323.57 104.234L364.085 104.112C377.239 104.084 390.387 104.114 403.538 104.199C404.909 104.208 406.764 102.683 408.677 102.456C407.982 103.669 407.465 104.107 406.511 105.087C402.82 106.073 376.563 105.787 371.205 105.796C347.999 105.833 324.409 105.932 301.168 105.79C295.728 105.757 296.039 105.686 292.237 101.673Z"/>
<path fill="#374FC6" d="M1393.25 317.138C1393.87 321.383 1393.46 340.144 1393.48 345.434C1391.71 347.176 1389.94 348.909 1388.15 350.632C1387.66 342.001 1387.78 331.554 1387.66 322.809C1389.5 320.895 1391.36 319.004 1393.25 317.138Z"/>
<path fill="#81C6FD" d="M1387.61 405.501C1389.3 406.841 1392.28 410.221 1394 411.972C1394.06 419.039 1394.07 426.107 1394.04 433.174C1391.21 431.742 1389.75 429.903 1387.49 427.654C1387.52 420.323 1387.4 412.806 1387.61 405.501Z"/>
<path fill="#81C6FD" d="M1429.39 87.7628C1419.01 84.6934 1424.79 77.5467 1428.97 78.6275C1429.37 79.3607 1429.79 79.9766 1430.24 80.6744L1432.09 79.3276C1432.92 78.7276 1435.94 76.9978 1435.03 79.6938C1434.63 80.8784 1432.74 82.0916 1433.18 83.6205C1433.38 84.8322 1434.98 85.3432 1435.06 86.5285C1435.09 86.9766 1433.63 87.0191 1433.44 87.054C1432 87.2386 1430.77 87.3208 1429.39 87.7628Z"/>
<path fill="#81C6FD" d="M1430.24 80.6744L1432.09 79.3276C1432.92 78.7276 1435.94 76.9978 1435.03 79.6938C1434.63 80.8784 1432.74 82.0916 1433.18 83.6205C1433.38 84.8322 1434.98 85.3432 1435.06 86.5285C1435.09 86.9766 1433.63 87.0191 1433.44 87.054C1429.65 84.634 1428.85 84.8351 1430.24 80.6744Z"/>
<path fill="#02032A" d="M1428.97 78.6275C1429.37 79.3607 1429.79 79.9766 1430.24 80.6744C1428.85 84.8351 1429.65 84.634 1433.44 87.054C1432 87.2386 1430.77 87.3208 1429.39 87.7628C1426.94 82.7093 1426.3 84.191 1428.72 79.1526L1428.97 78.6275Z"/>
<path fill="#81C6FD" d="M1387.4 436.149C1392.85 439.232 1393.72 441.928 1394.08 447.488C1388.7 444.265 1387.61 441.909 1387.4 436.149Z"/>
<path fill="#90E5FE" d="M1337.58 170.494C1335.05 171.45 1332.61 169.324 1332.45 167.478C1332.3 165.789 1341.45 157.816 1337.15 166.387L1337.85 167.378C1338.23 168.011 1338.61 168.649 1338.98 169.291L1337.58 170.494Z"/>
<path fill="#1A2056" d="M1337.15 166.387L1337.85 167.378C1338.23 168.011 1338.61 168.649 1338.98 169.291L1337.58 170.494C1336.59 168.753 1334.86 167.342 1337.15 166.387Z"/>
<path fill="#90E5FE" d="M1337.85 167.378C1338.76 166.558 1343.5 161.303 1344.67 163.493C1344.63 165.024 1343 165.925 1342.43 167.245C1342.05 168.125 1344.52 170.24 1343.57 170.868C1342.08 171.858 1340.16 170.021 1338.98 169.291C1338.61 168.649 1338.23 168.011 1337.85 167.378Z"/>
<path fill="#2A348D" d="M34.2095 682.483L34.9408 681.631C40.2365 687.206 46.0678 692.273 51.3832 697.847C64.9259 712.05 78.5486 725.845 92.4532 739.696L357.65 739.865L449.301 739.853C462.84 739.851 476.65 739.913 490.213 739.986C494.056 740.006 494.12 739.298 496.787 737.061L496.694 739.169C500.014 741.628 837.692 739.799 871.138 739.855C872.777 738.176 887.328 725.289 887.435 724.847C883.986 723.661 797.771 724.493 789.134 724.493L454.265 724.411C452.974 722.362 452.729 722.216 450.45 721.374C458.781 722.838 491.195 722.192 501.883 722.197L609.674 722.263L1031.5 721.917C1035.49 725.788 1041.03 731.458 1045.28 734.733C1055.86 733.718 1072.6 734.14 1083.78 734.176L1156.94 734.664L1253.42 734.096C1264.78 734.071 1282.43 733.466 1293.32 734.014L1292.17 736.852L1043.25 736.868L1030.71 724.672C984.089 724.701 936.732 724.257 890.174 724.812C884.886 729.491 876.383 737.553 870.986 741.383L337.052 741.389L174.544 741.402L124.117 741.448C118.441 741.451 93.7856 742.398 90.3731 739.338C75.0439 725.588 61.4858 709.529 46.5044 695.316C42.6788 691.686 37.4488 686.576 34.2095 682.483Z"/>
<path fill="#1A2056" d="M96.8005 34.442L314.556 34.5621C352.636 34.5594 396.758 33.4484 434.332 34.6724C436.357 36.4653 439.581 38.8556 440.356 41.2341C437.86 41.0606 435.296 37.9068 433.55 36.0578L98.2676 36.1145C94.4141 38.7006 76.566 56.5163 72.4094 60.8773C61.6425 72.1735 46.5822 85.1727 36.4904 96.3764C36.7039 113.873 36.7847 131.37 36.7327 148.868C36.7318 152.878 36.5503 172.068 37.2462 175.024L34.8164 174.196C35.5753 167.52 34.9882 159.268 35.2019 152.485C35.7597 134.776 34.0392 113.518 35.0361 96.0756C54.9276 75.3991 76.4567 54.8641 96.8005 34.442Z"/>
<path fill="#1A2056" d="M567.003 34.8691C571.339 33.5069 618.982 34.4746 627.973 34.491L797.641 34.5849L878.991 34.6993C890.2 34.7343 901.81 34.2257 912.956 34.7221C915.386 34.8303 916.195 35.6462 917.501 37.2593L916.714 37.6207C911.543 35.2354 877.823 36.048 870.544 36.0436L796.464 36.0403L568.092 36.076L567.003 34.8691Z"/>
<path fill="#2A348D" d="M58.0683 389.398L60.5421 390.285C59.6397 395.762 59.9504 408.243 59.9643 414.214L60.1126 454.993L35.6426 479.452C35.5378 484.173 36.5079 498.839 35.9573 502.295L33.4927 503.976C32.3961 500.255 33.2532 484.279 33.4067 479.076L58.61 454.08C58.3318 437.007 58.8219 419.837 58.6097 402.752C58.5536 398.233 58.7515 393.888 58.0683 389.398Z"/>
<path fill="#2A348D" d="M32.8625 590.907L35.4026 591.508C34.3808 613.651 34.2401 633.824 34.5566 656.079C34.6113 659.924 35.2395 679.657 34.9408 681.631L34.2095 682.483L32.754 681.018C31.8666 678.514 32.2033 592.313 32.8625 590.907Z"/>
<path fill="#2A348D" d="M35.0237 262.004L37.3184 262.685C36.8811 269.444 36.8589 275.652 36.8384 282.4C42.8888 288.464 54.7548 299.744 59.9917 306.118L60.0105 352.077C59.9984 356.658 59.7372 373.673 60.5651 377.055L58.1083 376.654C58.7528 373.92 58.5363 357.229 58.5293 353.275C58.4699 337.754 58.5069 322.233 58.6404 306.713C50.9764 298.764 43.1879 290.935 35.2779 283.231C35.3371 276.008 35.4113 269.237 35.0237 262.004Z"/>
<path fill="#1A2056" d="M35.9573 502.295C34.9209 508.266 35.8217 521.406 35.6552 528.191C35.1609 548.327 36.7574 571.592 35.4026 591.508L32.8625 590.907C34.2547 588.349 34.3013 510.156 33.4927 503.976L35.9573 502.295Z"/>
<path fill="#1A2056" d="M37.5425 181.23C36.3567 191.75 35.4148 246.358 37.1704 255.588L34.5394 256.084C35.6512 249.898 35.8555 187.457 34.5464 181.721C35.5464 181.566 36.5452 181.402 37.5425 181.23Z"/>
<path fill="#374FC6" d="M58.1083 376.654L60.5651 377.055C61.9429 379.312 61.9031 387.942 60.5421 390.285L58.0683 389.398C56.861 385.563 57.008 380.514 58.1083 376.654Z"/>
<path fill="#374FC6" d="M34.8164 174.196L37.2462 175.024C37.7164 177.827 37.6267 178.491 37.5425 181.23C36.5452 181.402 35.5464 181.566 34.5464 181.721C34.4356 178.328 34.3956 177.555 34.8164 174.196Z"/>
<path fill="#374FC6" d="M37.1704 255.588C37.6928 258.359 37.6362 259.897 37.3184 262.685L35.0237 262.004C33.9915 259.816 34.3567 258.487 34.5394 256.084L37.1704 255.588Z"/>
<path fill="#1A2056" d="M561.044 38.2435C561.517 38.6318 561.409 38.4665 561.518 38.7351C561.32 39.6108 558.046 42.5668 557.143 43.5373C557.045 43.4333 556.638 43.12 556.621 42.855C556.564 41.9243 560.315 38.9599 561.044 38.2435Z"/>
</g>
</svg>